<?xml version="1.0" standalone="no"?>
<!DOCTYPE svg PUBLIC "-//W3C//DTD SVG 20010904//EN"
 "http://www.w3.org/TR/2001/REC-SVG-20010904/DTD/svg10.dtd">
<svg version="1.0" xmlns="http://www.w3.org/2000/svg"
 width="256.000000pt" height="256.000000pt" viewBox="0 0 256.000000 256.000000"
 preserveAspectRatio="xMidYMid meet">
<metadata>
Created by potrace 1.14, written by Peter Selinger 2001-2017
</metadata>
<g transform="translate(0.000000,256.000000) scale(0.100000,-0.100000)"
fill="#000000" stroke="none">
<path d="M1253 2475 c-37 -17 -175 -150 -613 -591 -311 -313 -564 -572 -562
-576 1 -5 -2 -8 -8 -8 -9 0 -38 -57 -45 -90 -2 -8 -4 -15 -5 -15 -8 0 -14 -80
-15 -175 0 -163 25 -231 106 -284 33 -22 261 -116 281 -116 5 0 7 27 5 60 -2
33 1 61 7 63 18 6 -33 42 -86 61 -156 54 -169 71 -163 204 2 48 6 101 9 119
13 79 68 146 118 145 12 0 133 -43 268 -95 135 -53 354 -139 488 -191 133 -52
262 -97 285 -99 23 -2 65 2 92 10 47 13 81 45 539 506 269 271 495 502 504
515 21 33 17 107 -8 143 -28 38 -34 41 -300 143 -124 48 -234 91 -245 96 -11
5 -128 50 -260 101 -270 104 -311 112 -392 74z"/>
<path d="M2324 1552 c1 -70 3 -78 24 -87 21 -9 27 -23 22 -54 -1 -7 -224 -236
-497 -507 -536 -534 -510 -512 -585 -480 -98 43 -169 68 -174 64 -10 -10 -9
-140 1 -147 5 -5 48 -22 94 -40 97 -36 165 -41 226 -16 29 12 182 159 570 546
292 292 535 541 541 554 14 30 11 118 -5 123 -6 2 -11 8 -11 14 0 16 -22 32
-70 52 -25 10 -54 22 -65 27 -11 5 -32 13 -46 18 l-25 9 0 -76z"/>
<path d="M581 823 c-24 -25 -47 -60 -51 -77 -5 -17 -8 -89 -7 -159 1 -71 -1
-131 -6 -134 -4 -2 -4 -9 0 -16 3 -6 7 -52 7 -101 1 -103 -3 -99 86 -79 103
24 121 25 138 9 49 -46 83 -76 137 -121 33 -28 62 -52 65 -55 35 -35 35 -37
34 223 0 231 1 255 19 285 10 18 30 41 43 51 13 10 20 21 17 25 -3 3 1 6 10 6
9 0 17 4 17 8 0 12 -29 26 -165 77 -66 25 -131 50 -145 57 -14 6 -34 14 -45
18 -11 4 -33 13 -48 19 -44 18 -59 13 -106 -36z"/>
</g>
</svg>
